<svg id="Layer_1" data-name="Layer 1" xmlns="http://www.w3.org/2000/svg" viewBox="0 0 514.69 90.69"><defs><style>.cls-1{fill:#979999;}.cls-2{fill:#010202;}.cls-3{fill:#b08e17;}.cls-4{fill:#928451;}.cls-5{fill:#626161;}</style></defs><polygon class="cls-1" points="40.18 0.55 40.18 8.36 7.38 8.36 7.38 90.25 0 90.25 0 0.55 40.18 0.55"/><polygon class="cls-2" points="40.18 16.73 40.18 25.31 24.43 25.31 24.43 90.25 15.64 90.25 15.64 16.73 40.18 16.73"/><rect class="cls-1" x="32.25" y="33.34" width="7.93" height="56.9"/><polygon class="cls-3" points="48.22 90.25 48.22 82.43 81.01 82.43 81.01 0.55 88.4 0.55 88.4 90.25 48.22 90.25"/><polygon class="cls-4" points="48.22 74.07 48.22 65.49 63.96 65.49 63.96 0.55 72.76 0.55 72.76 74.07 48.22 74.07"/><rect class="cls-2" x="48.22" y="0.55" width="7.93" height="56.9"/><rect class="cls-5" x="107.35" width="2.61" height="90.24"/><path class="cls-2" d="M206.35,455v61.74H190.22v-83.4s3.75-7,8.06-6,4.81,1.79,4.81,1.79l59.13,61.25V428.65h16.13v82.91s-3.42,8.47-12.22,5.21Z" transform="translate(-54.37 -426.99)"/><path class="cls-2" d="M375.76,429.67v16H312.23v52.13s-.22,3.31,3.8,3.91,59.19,0,59.19,0l.11,15.86h-61s-15.26-3.1-18.14-18V435.05s2.82-5.54,6.57-5.38S375.76,429.67,375.76,429.67Z" transform="translate(-54.37 -426.99)"/><rect class="cls-2" x="263.97" y="38.76" width="49.93" height="15.8"/><polygon class="cls-2" points="350.5 2.51 328.56 2.51 365.92 46.98 328.88 90.69 350.82 90.69 377.16 59.85 403.55 90.69 424.88 90.69 387.85 46.98 425.21 2.78 404.25 2.51 376.88 33.95 350.5 2.51"/><polygon class="cls-2" points="514.69 18.58 514.69 3.16 429.34 3.16 429.34 18.58 463.87 18.58 463.87 90.69 479.29 90.69 479.29 19.02 514.69 18.58"/></svg>